<?xml version="1.0" standalone="no"?>
<svg width="567.429" height="384.969" viewBox="0 0 567.429 384.969" xmlns="http://www.w3.org/2000/svg" shape-rendering="crispEdges">
<title>
h1.svg
</title>
<desc>
Creator: ROOT Version 6.24/00
CreationDate: Fri Jan 14 11:38:41 2022</desc>
<defs>
</defs>
<rect x="0.5" y="0" width="566.929" height="384.469" fill="white"/>
<rect x="57.1929" y="38.4469" width="453.543" height="307.575" fill="white"/>
<rect x="57.1929" y="38.4469" width="453.543" height="307.575" fill="none" stroke="black"/>
<rect x="57.1929" y="38.4469" width="453.543" height="307.575" fill="white"/>
<rect x="57.1929" y="38.4469" width="453.543" height="307.575" fill="none" stroke="black"/>
<path d="M91.2087,345.642v -0.919083" fill="none" stroke="#000099"/>
<path d="M91.2087,344.722v -0.919083" fill="none" stroke="#000099"/>
<path d="M88.9409,344.722h 2.26772" fill="none" stroke="#000099"/>
<path d="M91.2087,344.722h 2.26772" fill="none" stroke="#000099"/>
<g stroke="black" stroke-width="1" fill="none">
<line x1="90.2087" y1="344.722" x2="91.2087" y2="344.722"/>
</g>
<path d="M127.492,346.022v -0.64989" fill="none" stroke="#000099"/>
<path d="M127.492,345.372v -0.64989" fill="none" stroke="#000099"/>
<path d="M125.224,345.372h 2.26772" fill="none" stroke="#000099"/>
<path d="M127.492,345.372h 2.26772" fill="none" stroke="#000099"/>
<g stroke="black" stroke-width="1" fill="none">
<line x1="126.492" y1="345.372" x2="127.492" y2="345.372"/>
</g>
<path d="M132.028,346.022v -0.64989" fill="none" stroke="#000099"/>
<path d="M132.028,345.372v -0.64989" fill="none" stroke="#000099"/>
<path d="M129.76,345.372h 2.26772" fill="none" stroke="#000099"/>
<path d="M132.028,345.372h 2.26772" fill="none" stroke="#000099"/>
<g stroke="black" stroke-width="1" fill="none">
<line x1="131.028" y1="345.372" x2="132.028" y2="345.372"/>
</g>
<path d="M136.563,346.022v -0.64989" fill="none" stroke="#000099"/>
<path d="M136.563,345.372v -0.64989" fill="none" stroke="#000099"/>
<path d="M134.295,345.372h 2.26772" fill="none" stroke="#000099"/>
<path d="M136.563,345.372h 2.26772" fill="none" stroke="#000099"/>
<g stroke="black" stroke-width="1" fill="none">
<line x1="135.563" y1="345.372" x2="136.563" y2="345.372"/>
</g>
<path d="M141.098,345.198v -1.12564" fill="none" stroke="#000099"/>
<path d="M141.098,344.073v -1.12564" fill="none" stroke="#000099"/>
<path d="M138.831,344.073h 2.26772" fill="none" stroke="#000099"/>
<path d="M141.098,344.073h 2.26772" fill="none" stroke="#000099"/>
<g stroke="black" stroke-width="1" fill="none">
<line x1="140.098" y1="344.073" x2="141.098" y2="344.073"/>
</g>
<path d="M145.634,344.722v -1.29978" fill="none" stroke="#000099"/>
<path d="M145.634,343.423v -1.29978" fill="none" stroke="#000099"/>
<path d="M143.366,343.423h 2.26772" fill="none" stroke="#000099"/>
<path d="M145.634,343.423h 2.26772" fill="none" stroke="#000099"/>
<g stroke="black" stroke-width="1" fill="none">
<line x1="144.634" y1="343.423" x2="145.634" y2="343.423"/>
</g>
<path d="M150.169,343.715v -1.5919" fill="none" stroke="#000099"/>
<path d="M150.169,342.123v -1.5919" fill="none" stroke="#000099"/>
<path d="M147.902,342.123h 2.26772" fill="none" stroke="#000099"/>
<path d="M150.169,342.123h 2.26772" fill="none" stroke="#000099"/>
<g stroke="black" stroke-width="1" fill="none">
<line x1="149.169" y1="342.123" x2="150.169" y2="342.123"/>
</g>
<path d="M154.705,343.192v -1.71945" fill="none" stroke="#000099"/>
<path d="M154.705,341.473v -1.71945" fill="none" stroke="#000099"/>
<path d="M152.437,341.473h 2.26772" fill="none" stroke="#000099"/>
<path d="M154.705,341.473h 2.26772" fill="none" stroke="#000099"/>
<g stroke="black" stroke-width="1" fill="none">
<line x1="153.705" y1="341.473" x2="154.705" y2="341.473"/>
</g>
<path d="M159.24,339.917v -2.34321" fill="none" stroke="#000099"/>
<path d="M159.24,337.574v -2.34321" fill="none" stroke="#000099"/>
<path d="M156.972,337.574h 2.26772" fill="none" stroke="#000099"/>
<path d="M159.24,337.574h 2.26772" fill="none" stroke="#000099"/>
<g stroke="black" stroke-width="1" fill="none">
<line x1="158.24" y1="337.574" x2="159.24" y2="337.574"/>
</g>
<path d="M163.776,337.654v -2.67956" fill="none" stroke="#000099"/>
<path d="M163.776,334.974v -2.67956" fill="none" stroke="#000099"/>
<path d="M161.508,334.974h 2.26772" fill="none" stroke="#000099"/>
<path d="M163.776,334.974h 2.26772" fill="none" stroke="#000099"/>
<g stroke="black" stroke-width="1" fill="none">
<line x1="162.776" y1="334.974" x2="163.776" y2="334.974"/>
</g>
<path d="M168.311,343.192v -1.71945" fill="none" stroke="#000099"/>
<path d="M168.311,341.473v -1.71945" fill="none" stroke="#000099"/>
<path d="M166.043,341.473h 2.26772" fill="none" stroke="#000099"/>
<path d="M168.311,341.473h 2.26772" fill="none" stroke="#000099"/>
<g stroke="black" stroke-width="1" fill="none">
<line x1="167.311" y1="341.473" x2="168.311" y2="341.473"/>
</g>
<path d="M172.846,335.931v -2.90639" fill="none" stroke="#000099"/>
<path d="M172.846,333.024v -2.90639" fill="none" stroke="#000099"/>
<path d="M170.579,333.024h 2.26772" fill="none" stroke="#000099"/>
<path d="M172.846,333.024h 2.26772" fill="none" stroke="#000099"/>
<g stroke="black" stroke-width="1" fill="none">
<line x1="171.846" y1="333.024" x2="172.846" y2="333.024"/>
</g>
<path d="M177.382,335.353v -2.97817" fill="none" stroke="#000099"/>
<path d="M177.382,332.375v -2.97817" fill="none" stroke="#000099"/>
<path d="M175.114,332.375h 2.26772" fill="none" stroke="#000099"/>
<path d="M177.382,332.375h 2.26772" fill="none" stroke="#000099"/>
<g stroke="black" stroke-width="1" fill="none">
<line x1="176.382" y1="332.375" x2="177.382" y2="332.375"/>
</g>
<path d="M181.917,329.494v -3.61843" fill="none" stroke="#000099"/>
<path d="M181.917,325.876v -3.61843" fill="none" stroke="#000099"/>
<path d="M179.65,325.876h 2.26772" fill="none" stroke="#000099"/>
<path d="M181.917,325.876h 2.26772" fill="none" stroke="#000099"/>
<g stroke="black" stroke-width="1" fill="none">
<line x1="180.917" y1="325.876" x2="181.917" y2="325.876"/>
</g>
<path d="M186.453,318.727v -4.54923" fill="none" stroke="#000099"/>
<path d="M186.453,314.178v -4.54923" fill="none" stroke="#000099"/>
<path d="M184.185,314.178h 2.26772" fill="none" stroke="#000099"/>
<path d="M186.453,314.178h 2.26772" fill="none" stroke="#000099"/>
<g stroke="black" stroke-width="1" fill="none">
<line x1="185.453" y1="314.178" x2="186.453" y2="314.178"/>
</g>
<path d="M190.988,319.33v -4.50257" fill="none" stroke="#000099"/>
<path d="M190.988,314.828v -4.50257" fill="none" stroke="#000099"/>
<path d="M188.72,314.828h 2.26772" fill="none" stroke="#000099"/>
<path d="M190.988,314.828h 2.26772" fill="none" stroke="#000099"/>
<g stroke="black" stroke-width="1" fill="none">
<line x1="189.988" y1="314.828" x2="190.988" y2="314.828"/>
</g>
<path d="M195.524,305.356v -5.47607" fill="none" stroke="#000099"/>
<path d="M195.524,299.88v -5.47607" fill="none" stroke="#000099"/>
<path d="M193.256,299.88h 2.26772" fill="none" stroke="#000099"/>
<path d="M195.524,299.88h 2.26772" fill="none" stroke="#000099"/>
<g stroke="black" stroke-width="1" fill="none">
<line x1="194.524" y1="299.88" x2="195.524" y2="299.88"/>
</g>
<path d="M200.059,312.063v -5.03402" fill="none" stroke="#000099"/>
<path d="M200.059,307.029v -5.03402" fill="none" stroke="#000099"/>
<path d="M197.791,307.029h 2.26772" fill="none" stroke="#000099"/>
<path d="M200.059,307.029h 2.26772" fill="none" stroke="#000099"/>
<g stroke="black" stroke-width="1" fill="none">
<line x1="199.059" y1="307.029" x2="200.059" y2="307.029"/>
</g>
<path d="M204.594,298.616v -5.885" fill="none" stroke="#000099"/>
<path d="M204.594,292.731v -5.885" fill="none" stroke="#000099"/>
<path d="M202.327,292.731h 2.26772" fill="none" stroke="#000099"/>
<path d="M204.594,292.731h 2.26772" fill="none" stroke="#000099"/>
<g stroke="black" stroke-width="1" fill="none">
<line x1="203.594" y1="292.731" x2="204.594" y2="292.731"/>
</g>
<path d="M209.13,291.85v -6.26731" fill="none" stroke="#000099"/>
<path d="M209.13,285.583v -6.26731" fill="none" stroke="#000099"/>
<path d="M206.862,285.583h 2.26772" fill="none" stroke="#000099"/>
<path d="M209.13,285.583h 2.26772" fill="none" stroke="#000099"/>
<g stroke="black" stroke-width="1" fill="none">
<line x1="208.13" y1="285.583" x2="209.13" y2="285.583"/>
</g>
<path d="M213.665,276.395v -7.05961" fill="none" stroke="#000099"/>
<path d="M213.665,269.335v -7.05961" fill="none" stroke="#000099"/>
<path d="M211.398,269.335h 2.26772" fill="none" stroke="#000099"/>
<path d="M213.665,269.335h 2.26772" fill="none" stroke="#000099"/>
<g stroke="black" stroke-width="1" fill="none">
<line x1="212.665" y1="269.335" x2="213.665" y2="269.335"/>
</g>
<path d="M218.201,266.46v -7.52302" fill="none" stroke="#000099"/>
<path d="M218.201,258.937v -7.52302" fill="none" stroke="#000099"/>
<path d="M215.933,258.937h 2.26772" fill="none" stroke="#000099"/>
<path d="M218.201,258.937h 2.26772" fill="none" stroke="#000099"/>
<g stroke="black" stroke-width="1" fill="none">
<line x1="217.201" y1="258.937" x2="218.201" y2="258.937"/>
</g>
<path d="M222.736,262.105v -7.71701" fill="none" stroke="#000099"/>
<path d="M222.736,254.388v -7.71701" fill="none" stroke="#000099"/>
<path d="M220.469,254.388h 2.26772" fill="none" stroke="#000099"/>
<path d="M222.736,254.388h 2.26772" fill="none" stroke="#000099"/>
<g stroke="black" stroke-width="1" fill="none">
<line x1="221.736" y1="254.388" x2="222.736" y2="254.388"/>
</g>
<path d="M227.272,232.128v -8.9345" fill="none" stroke="#000099"/>
<path d="M227.272,223.193v -8.9345" fill="none" stroke="#000099"/>
<path d="M225.004,223.193h 2.26772" fill="none" stroke="#000099"/>
<path d="M227.272,223.193h 2.26772" fill="none" stroke="#000099"/>
<g stroke="black" stroke-width="1" fill="none">
<line x1="226.272" y1="223.193" x2="227.272" y2="223.193"/>
</g>
<path d="M231.807,214.57v -9.57347" fill="none" stroke="#000099"/>
<path d="M231.807,204.996v -9.57347" fill="none" stroke="#000099"/>
<path d="M229.539,204.996h 2.26772" fill="none" stroke="#000099"/>
<path d="M231.807,204.996h 2.26772" fill="none" stroke="#000099"/>
<g stroke="black" stroke-width="1" fill="none">
<line x1="230.807" y1="204.996" x2="231.807" y2="204.996"/>
</g>
<path d="M236.343,207.032v -9.83461" fill="none" stroke="#000099"/>
<path d="M236.343,197.198v -9.83461" fill="none" stroke="#000099"/>
<path d="M234.075,197.198h 2.26772" fill="none" stroke="#000099"/>
<path d="M236.343,197.198h 2.26772" fill="none" stroke="#000099"/>
<g stroke="black" stroke-width="1" fill="none">
<line x1="235.343" y1="197.198" x2="236.343" y2="197.198"/>
</g>
<path d="M240.878,192.567v -10.3167" fill="none" stroke="#000099"/>
<path d="M240.878,182.25v -10.3167" fill="none" stroke="#000099"/>
<path d="M238.61,182.25h 2.26772" fill="none" stroke="#000099"/>
<path d="M240.878,182.25h 2.26772" fill="none" stroke="#000099"/>
<g stroke="black" stroke-width="1" fill="none">
<line x1="239.878" y1="182.25" x2="240.878" y2="182.25"/>
</g>
<path d="M245.413,173.667v -10.9135" fill="none" stroke="#000099"/>
<path d="M245.413,162.753v -10.9135" fill="none" stroke="#000099"/>
<path d="M243.146,162.753h 2.26772" fill="none" stroke="#000099"/>
<path d="M245.413,162.753h 2.26772" fill="none" stroke="#000099"/>
<g stroke="black" stroke-width="1" fill="none">
<line x1="244.413" y1="162.753" x2="245.413" y2="162.753"/>
</g>
<path d="M249.949,164.836v -11.1811" fill="none" stroke="#000099"/>
<path d="M249.949,153.655v -11.1811" fill="none" stroke="#000099"/>
<path d="M247.681,153.655h 2.26772" fill="none" stroke="#000099"/>
<path d="M249.949,153.655h 2.26772" fill="none" stroke="#000099"/>
<g stroke="black" stroke-width="1" fill="none">
<line x1="248.949" y1="153.655" x2="249.949" y2="153.655"/>
</g>
<path d="M254.484,164.205v -11.2" fill="none" stroke="#000099"/>
<path d="M254.484,153.005v -11.2" fill="none" stroke="#000099"/>
<path d="M252.217,153.005h 2.26772" fill="none" stroke="#000099"/>
<path d="M254.484,153.005h 2.26772" fill="none" stroke="#000099"/>
<g stroke="black" stroke-width="1" fill="none">
<line x1="253.484" y1="153.005" x2="254.484" y2="153.005"/>
</g>
<path d="M259.02,132.617v -12.1061" fill="none" stroke="#000099"/>
<path d="M259.02,120.511v -12.1061" fill="none" stroke="#000099"/>
<path d="M256.752,120.511h 2.26772" fill="none" stroke="#000099"/>
<path d="M259.02,120.511h 2.26772" fill="none" stroke="#000099"/>
<g stroke="black" stroke-width="1" fill="none">
<line x1="258.02" y1="120.511" x2="259.02" y2="120.511"/>
</g>
<path d="M263.555,127.556v -12.2449" fill="none" stroke="#000099"/>
<path d="M263.555,115.311v -12.2449" fill="none" stroke="#000099"/>
<path d="M261.287,115.311h 2.26772" fill="none" stroke="#000099"/>
<path d="M263.555,115.311h 2.26772" fill="none" stroke="#000099"/>
<g stroke="black" stroke-width="1" fill="none">
<line x1="262.555" y1="115.311" x2="263.555" y2="115.311"/>
</g>
<path d="M268.091,101.599v -12.9326" fill="none" stroke="#000099"/>
<path d="M268.091,88.666v -12.9326" fill="none" stroke="#000099"/>
<path d="M265.823,88.666h 2.26772" fill="none" stroke="#000099"/>
<path d="M268.091,88.666h 2.26772" fill="none" stroke="#000099"/>
<g stroke="black" stroke-width="1" fill="none">
<line x1="267.091" y1="88.666" x2="268.091" y2="88.666"/>
</g>
<path d="M272.626,100.965v -12.949" fill="none" stroke="#000099"/>
<path d="M272.626,88.0161v -12.949" fill="none" stroke="#000099"/>
<path d="M270.358,88.0161h 2.26772" fill="none" stroke="#000099"/>
<path d="M272.626,88.0161h 2.26772" fill="none" stroke="#000099"/>
<g stroke="black" stroke-width="1" fill="none">
<line x1="271.626" y1="88.0161" x2="272.626" y2="88.0161"/>
</g>
<path d="M277.161,103.499v -12.8836" fill="none" stroke="#000099"/>
<path d="M277.161,90.6157v -12.8836" fill="none" stroke="#000099"/>
<path d="M274.894,90.6157h 2.26772" fill="none" stroke="#000099"/>
<path d="M277.161,90.6157h 2.26772" fill="none" stroke="#000099"/>
<g stroke="black" stroke-width="1" fill="none">
<line x1="276.161" y1="90.6157" x2="277.161" y2="90.6157"/>
</g>
<path d="M281.697,96.5295v -13.0626" fill="none" stroke="#000099"/>
<path d="M281.697,83.4669v -13.0626" fill="none" stroke="#000099"/>
<path d="M279.429,83.4669h 2.26772" fill="none" stroke="#000099"/>
<path d="M281.697,83.4669h 2.26772" fill="none" stroke="#000099"/>
<g stroke="black" stroke-width="1" fill="none">
<line x1="280.697" y1="83.4669" x2="281.697" y2="83.4669"/>
</g>
<path d="M286.232,112.999v -12.6353" fill="none" stroke="#000099"/>
<path d="M286.232,100.364v -12.6353" fill="none" stroke="#000099"/>
<path d="M283.965,100.364h 2.26772" fill="none" stroke="#000099"/>
<path d="M286.232,100.364h 2.26772" fill="none" stroke="#000099"/>
<g stroke="black" stroke-width="1" fill="none">
<line x1="285.232" y1="100.364" x2="286.232" y2="100.364"/>
</g>
<path d="M290.768,80.0462v -13.4764" fill="none" stroke="#000099"/>
<path d="M290.768,66.5698v -13.4764" fill="none" stroke="#000099"/>
<path d="M288.5,66.5698h 2.26772" fill="none" stroke="#000099"/>
<path d="M290.768,66.5698h 2.26772" fill="none" stroke="#000099"/>
<g stroke="black" stroke-width="1" fill="none">
<line x1="289.768" y1="66.5698" x2="290.768" y2="66.5698"/>
</g>
<path d="M295.303,107.933v -12.7683" fill="none" stroke="#000099"/>
<path d="M295.303,95.1649v -12.7683" fill="none" stroke="#000099"/>
<path d="M293.035,95.1649h 2.26772" fill="none" stroke="#000099"/>
<path d="M295.303,95.1649h 2.26772" fill="none" stroke="#000099"/>
<g stroke="black" stroke-width="1" fill="none">
<line x1="294.303" y1="95.1649" x2="295.303" y2="95.1649"/>
</g>
<path d="M299.839,107.3v -12.7848" fill="none" stroke="#000099"/>
<path d="M299.839,94.515v -12.7848" fill="none" stroke="#000099"/>
<path d="M297.571,94.515h 2.26772" fill="none" stroke="#000099"/>
<path d="M299.839,94.515h 2.26772" fill="none" stroke="#000099"/>
<g stroke="black" stroke-width="1" fill="none">
<line x1="298.839" y1="94.515" x2="299.839" y2="94.515"/>
</g>
<path d="M304.374,106.666v -12.8013" fill="none" stroke="#000099"/>
<path d="M304.374,93.8651v -12.8013" fill="none" stroke="#000099"/>
<path d="M302.106,93.8651h 2.26772" fill="none" stroke="#000099"/>
<path d="M304.374,93.8651h 2.26772" fill="none" stroke="#000099"/>
<g stroke="black" stroke-width="1" fill="none">
<line x1="303.374" y1="93.8651" x2="304.374" y2="93.8651"/>
</g>
<path d="M308.909,153.473v -11.5161" fill="none" stroke="#000099"/>
<path d="M308.909,141.957v -11.5161" fill="none" stroke="#000099"/>
<path d="M306.642,141.957h 2.26772" fill="none" stroke="#000099"/>
<path d="M308.909,141.957h 2.26772" fill="none" stroke="#000099"/>
<g stroke="black" stroke-width="1" fill="none">
<line x1="307.909" y1="141.957" x2="308.909" y2="141.957"/>
</g>
<path d="M313.445,154.105v -11.4977" fill="none" stroke="#000099"/>
<path d="M313.445,142.607v -11.4977" fill="none" stroke="#000099"/>
<path d="M311.177,142.607h 2.26772" fill="none" stroke="#000099"/>
<path d="M313.445,142.607h 2.26772" fill="none" stroke="#000099"/>
<g stroke="black" stroke-width="1" fill="none">
<line x1="312.445" y1="142.607" x2="313.445" y2="142.607"/>
</g>
<path d="M317.98,166.729v -11.1243" fill="none" stroke="#000099"/>
<path d="M317.98,155.605v -11.1243" fill="none" stroke="#000099"/>
<path d="M315.713,155.605h 2.26772" fill="none" stroke="#000099"/>
<path d="M317.98,155.605h 2.26772" fill="none" stroke="#000099"/>
<g stroke="black" stroke-width="1" fill="none">
<line x1="316.98" y1="155.605" x2="317.98" y2="155.605"/>
</g>
<path d="M322.516,185.641v -10.5394" fill="none" stroke="#000099"/>
<path d="M322.516,175.101v -10.5394" fill="none" stroke="#000099"/>
<path d="M320.248,175.101h 2.26772" fill="none" stroke="#000099"/>
<path d="M322.516,175.101h 2.26772" fill="none" stroke="#000099"/>
<g stroke="black" stroke-width="1" fill="none">
<line x1="321.516" y1="175.101" x2="322.516" y2="175.101"/>
</g>
<path d="M327.051,196.972v -10.1724" fill="none" stroke="#000099"/>
<path d="M327.051,186.799v -10.1724" fill="none" stroke="#000099"/>
<path d="M324.783,186.799h 2.26772" fill="none" stroke="#000099"/>
<path d="M327.051,186.799h 2.26772" fill="none" stroke="#000099"/>
<g stroke="black" stroke-width="1" fill="none">
<line x1="326.051" y1="186.799" x2="327.051" y2="186.799"/>
</g>
<path d="M331.587,210.174v -9.72666" fill="none" stroke="#000099"/>
<path d="M331.587,200.447v -9.72666" fill="none" stroke="#000099"/>
<path d="M329.319,200.447h 2.26772" fill="none" stroke="#000099"/>
<path d="M331.587,200.447h 2.26772" fill="none" stroke="#000099"/>
<g stroke="black" stroke-width="1" fill="none">
<line x1="330.587" y1="200.447" x2="331.587" y2="200.447"/>
</g>
<path d="M336.122,213.314v -9.61749" fill="none" stroke="#000099"/>
<path d="M336.122,203.696v -9.61749" fill="none" stroke="#000099"/>
<path d="M333.854,203.696h 2.26772" fill="none" stroke="#000099"/>
<path d="M336.122,203.696h 2.26772" fill="none" stroke="#000099"/>
<g stroke="black" stroke-width="1" fill="none">
<line x1="335.122" y1="203.696" x2="336.122" y2="203.696"/>
</g>
<path d="M340.657,239.638v -8.64622" fill="none" stroke="#000099"/>
<path d="M340.657,230.992v -8.64622" fill="none" stroke="#000099"/>
<path d="M338.39,230.992h 2.26772" fill="none" stroke="#000099"/>
<path d="M340.657,230.992h 2.26772" fill="none" stroke="#000099"/>
<g stroke="black" stroke-width="1" fill="none">
<line x1="339.657" y1="230.992" x2="340.657" y2="230.992"/>
</g>
<path d="M345.193,257.745v -7.90625" fill="none" stroke="#000099"/>
<path d="M345.193,249.839v -7.90625" fill="none" stroke="#000099"/>
<path d="M342.925,249.839h 2.26772" fill="none" stroke="#000099"/>
<path d="M345.193,249.839h 2.26772" fill="none" stroke="#000099"/>
<g stroke="black" stroke-width="1" fill="none">
<line x1="344.193" y1="249.839" x2="345.193" y2="249.839"/>
</g>
<path d="M349.728,267.703v -7.46666" fill="none" stroke="#000099"/>
<path d="M349.728,260.237v -7.46666" fill="none" stroke="#000099"/>
<path d="M347.461,260.237h 2.26772" fill="none" stroke="#000099"/>
<path d="M349.728,260.237h 2.26772" fill="none" stroke="#000099"/>
<g stroke="black" stroke-width="1" fill="none">
<line x1="348.728" y1="260.237" x2="349.728" y2="260.237"/>
</g>
<path d="M354.264,260.86v -7.77155" fill="none" stroke="#000099"/>
<path d="M354.264,253.088v -7.77155" fill="none" stroke="#000099"/>
<path d="M351.996,253.088h 2.26772" fill="none" stroke="#000099"/>
<path d="M354.264,253.088h 2.26772" fill="none" stroke="#000099"/>
<g stroke="black" stroke-width="1" fill="none">
<line x1="353.264" y1="253.088" x2="354.264" y2="253.088"/>
</g>
<path d="M358.799,286.915v -6.53131" fill="none" stroke="#000099"/>
<path d="M358.799,280.383v -6.53131" fill="none" stroke="#000099"/>
<path d="M356.531,280.383h 2.26772" fill="none" stroke="#000099"/>
<path d="M358.799,280.383h 2.26772" fill="none" stroke="#000099"/>
<g stroke="black" stroke-width="1" fill="none">
<line x1="357.799" y1="280.383" x2="358.799" y2="280.383"/>
</g>
<path d="M363.335,288.767v -6.43358" fill="none" stroke="#000099"/>
<path d="M363.335,282.333v -6.43358" fill="none" stroke="#000099"/>
<path d="M361.067,282.333h 2.26772" fill="none" stroke="#000099"/>
<path d="M363.335,282.333h 2.26772" fill="none" stroke="#000099"/>
<g stroke="black" stroke-width="1" fill="none">
<line x1="362.335" y1="282.333" x2="363.335" y2="282.333"/>
</g>
<path d="M367.87,302.909v -5.62821" fill="none" stroke="#000099"/>
<path d="M367.87,297.281v -5.62821" fill="none" stroke="#000099"/>
<path d="M365.602,297.281h 2.26772" fill="none" stroke="#000099"/>
<path d="M367.87,297.281h 2.26772" fill="none" stroke="#000099"/>
<g stroke="black" stroke-width="1" fill="none">
<line x1="366.87" y1="297.281" x2="367.87" y2="297.281"/>
</g>
<path d="M372.406,313.278v -4.94941" fill="none" stroke="#000099"/>
<path d="M372.406,308.329v -4.94941" fill="none" stroke="#000099"/>
<path d="M370.138,308.329h 2.26772" fill="none" stroke="#000099"/>
<path d="M372.406,308.329h 2.26772" fill="none" stroke="#000099"/>
<g stroke="black" stroke-width="1" fill="none">
<line x1="371.406" y1="308.329" x2="372.406" y2="308.329"/>
</g>
<path d="M376.941,317.519v -4.64114" fill="none" stroke="#000099"/>
<path d="M376.941,312.878v -4.64114" fill="none" stroke="#000099"/>
<path d="M374.673,312.878h 2.26772" fill="none" stroke="#000099"/>
<path d="M376.941,312.878h 2.26772" fill="none" stroke="#000099"/>
<g stroke="black" stroke-width="1" fill="none">
<line x1="375.941" y1="312.878" x2="376.941" y2="312.878"/>
</g>
<path d="M381.476,322.939v -4.21177" fill="none" stroke="#000099"/>
<path d="M381.476,318.727v -4.21177" fill="none" stroke="#000099"/>
<path d="M379.209,318.727h 2.26772" fill="none" stroke="#000099"/>
<path d="M381.476,318.727h 2.26772" fill="none" stroke="#000099"/>
<g stroke="black" stroke-width="1" fill="none">
<line x1="380.476" y1="318.727" x2="381.476" y2="318.727"/>
</g>
<path d="M386.012,331.264v -3.43889" fill="none" stroke="#000099"/>
<path d="M386.012,327.825v -3.43889" fill="none" stroke="#000099"/>
<path d="M383.744,327.825h 2.26772" fill="none" stroke="#000099"/>
<path d="M386.012,327.825h 2.26772" fill="none" stroke="#000099"/>
<g stroke="black" stroke-width="1" fill="none">
<line x1="385.012" y1="327.825" x2="386.012" y2="327.825"/>
</g>
<path d="M390.547,328.902v -3.67633" fill="none" stroke="#000099"/>
<path d="M390.547,325.226v -3.67633" fill="none" stroke="#000099"/>
<path d="M388.28,325.226h 2.26772" fill="none" stroke="#000099"/>
<path d="M390.547,325.226h 2.26772" fill="none" stroke="#000099"/>
<g stroke="black" stroke-width="1" fill="none">
<line x1="389.547" y1="325.226" x2="390.547" y2="325.226"/>
</g>
<path d="M395.083,335.353v -2.97817" fill="none" stroke="#000099"/>
<path d="M395.083,332.375v -2.97817" fill="none" stroke="#000099"/>
<path d="M392.815,332.375h 2.26772" fill="none" stroke="#000099"/>
<path d="M395.083,332.375h 2.26772" fill="none" stroke="#000099"/>
<g stroke="black" stroke-width="1" fill="none">
<line x1="394.083" y1="332.375" x2="395.083" y2="332.375"/>
</g>
<path d="M399.618,338.791v -2.51701" fill="none" stroke="#000099"/>
<path d="M399.618,336.274v -2.51701" fill="none" stroke="#000099"/>
<path d="M397.35,336.274h 2.26772" fill="none" stroke="#000099"/>
<path d="M399.618,336.274h 2.26772" fill="none" stroke="#000099"/>
<g stroke="black" stroke-width="1" fill="none">
<line x1="398.618" y1="336.274" x2="399.618" y2="336.274"/>
</g>
<path d="M404.154,337.081v -2.75725" fill="none" stroke="#000099"/>
<path d="M404.154,334.324v -2.75725" fill="none" stroke="#000099"/>
<path d="M401.886,334.324h 2.26772" fill="none" stroke="#000099"/>
<path d="M404.154,334.324h 2.26772" fill="none" stroke="#000099"/>
<g stroke="black" stroke-width="1" fill="none">
<line x1="403.154" y1="334.324" x2="404.154" y2="334.324"/>
</g>
<path d="M408.689,341.578v -2.05513" fill="none" stroke="#000099"/>
<path d="M408.689,339.523v -2.05513" fill="none" stroke="#000099"/>
<path d="M406.421,339.523h 2.26772" fill="none" stroke="#000099"/>
<path d="M408.689,339.523h 2.26772" fill="none" stroke="#000099"/>
<g stroke="black" stroke-width="1" fill="none">
<line x1="407.689" y1="339.523" x2="408.689" y2="339.523"/>
</g>
<path d="M413.224,343.192v -1.71945" fill="none" stroke="#000099"/>
<path d="M413.224,341.473v -1.71945" fill="none" stroke="#000099"/>
<path d="M410.957,341.473h 2.26772" fill="none" stroke="#000099"/>
<path d="M413.224,341.473h 2.26772" fill="none" stroke="#000099"/>
<g stroke="black" stroke-width="1" fill="none">
<line x1="412.224" y1="341.473" x2="413.224" y2="341.473"/>
</g>
<path d="M417.76,343.192v -1.71945" fill="none" stroke="#000099"/>
<path d="M417.76,341.473v -1.71945" fill="none" stroke="#000099"/>
<path d="M415.492,341.473h 2.26772" fill="none" stroke="#000099"/>
<path d="M417.76,341.473h 2.26772" fill="none" stroke="#000099"/>
<g stroke="black" stroke-width="1" fill="none">
<line x1="416.76" y1="341.473" x2="417.76" y2="341.473"/>
</g>
<path d="M422.295,345.198v -1.12564" fill="none" stroke="#000099"/>
<path d="M422.295,344.073v -1.12564" fill="none" stroke="#000099"/>
<path d="M420.028,344.073h 2.26772" fill="none" stroke="#000099"/>
<path d="M422.295,344.073h 2.26772" fill="none" stroke="#000099"/>
<g stroke="black" stroke-width="1" fill="none">
<line x1="421.295" y1="344.073" x2="422.295" y2="344.073"/>
</g>
<path d="M431.366,345.642v -0.919083" fill="none" stroke="#000099"/>
<path d="M431.366,344.722v -0.919083" fill="none" stroke="#000099"/>
<path d="M429.098,344.722h 2.26772" fill="none" stroke="#000099"/>
<path d="M431.366,344.722h 2.26772" fill="none" stroke="#000099"/>
<g stroke="black" stroke-width="1" fill="none">
<line x1="430.366" y1="344.722" x2="431.366" y2="344.722"/>
</g>
<path d="M435.902,346.022v -0.64989" fill="none" stroke="#000099"/>
<path d="M435.902,345.372v -0.64989" fill="none" stroke="#000099"/>
<path d="M433.634,345.372h 2.26772" fill="none" stroke="#000099"/>
<path d="M435.902,345.372h 2.26772" fill="none" stroke="#000099"/>
<g stroke="black" stroke-width="1" fill="none">
<line x1="434.902" y1="345.372" x2="435.902" y2="345.372"/>
</g>
<path d="M440.437,345.198v -1.12564" fill="none" stroke="#000099"/>
<path d="M440.437,344.073v -1.12564" fill="none" stroke="#000099"/>
<path d="M438.169,344.073h 2.26772" fill="none" stroke="#000099"/>
<path d="M440.437,344.073h 2.26772" fill="none" stroke="#000099"/>
<g stroke="black" stroke-width="1" fill="none">
<line x1="439.437" y1="344.073" x2="440.437" y2="344.073"/>
</g>
<path d="M444.972,346.022v -0.64989" fill="none" stroke="#000099"/>
<path d="M444.972,345.372v -0.64989" fill="none" stroke="#000099"/>
<path d="M442.705,345.372h 2.26772" fill="none" stroke="#000099"/>
<path d="M444.972,345.372h 2.26772" fill="none" stroke="#000099"/>
<g stroke="black" stroke-width="1" fill="none">
<line x1="443.972" y1="345.372" x2="444.972" y2="345.372"/>
</g>
<path d="M454.043,346.022v -0.64989" fill="none" stroke="#000099"/>
<path d="M454.043,345.372v -0.64989" fill="none" stroke="#000099"/>
<path d="M451.776,345.372h 2.26772" fill="none" stroke="#000099"/>
<path d="M454.043,345.372h 2.26772" fill="none" stroke="#000099"/>
<g stroke="black" stroke-width="1" fill="none">
<line x1="453.043" y1="345.372" x2="454.043" y2="345.372"/>
</g>
<path d="M467.65,345.642v -0.919083" fill="none" stroke="#000099"/>
<path d="M467.65,344.722v -0.919083" fill="none" stroke="#000099"/>
<path d="M465.382,344.722h 2.26772" fill="none" stroke="#000099"/>
<path d="M467.65,344.722h 2.26772" fill="none" stroke="#000099"/>
<g stroke="black" stroke-width="1" fill="none">
<line x1="466.65" y1="344.722" x2="467.65" y2="344.722"/>
</g>
<rect x="442.705" y="24.9905" width="113.386" height="61.5151" fill="white"/>
<path d="M442.705,86.5056h 113.386" fill="none" stroke="black"/>
<path d="M556.091,86.5056v -61.5151" fill="none" stroke="black"/>
<path d="M556.091,24.9905h -113.386" fill="none" stroke="black"/>
<path d="M442.705,24.9905v 61.5151" fill="none" stroke="black"/>
<text xml:space="preserve" x="479.457" y="38.284" fill="black" font-size="13.4802" font-family="Helvetica">hGaus</text>
<path d="M442.705,40.3693h 113.386" fill="none" stroke="black"/>
<text xml:space="preserve" x="447.69" y="52.946" fill="black" font-size="11.7842" font-family="Helvetica">Entries </text>
<text xml:space="preserve" x="515.298" y="52.946" fill="black" font-size="11.7842" font-family="Helvetica"> 10000</text>
<text xml:space="preserve" x="447.69" y="67.6079" fill="black" font-size="11.7842" font-family="Helvetica">Mean  </text>
<text xml:space="preserve" x="499.821" y="67.6079" fill="black" font-size="11.7842" font-family="Helvetica"> 0.008308</text>
<text xml:space="preserve" x="447.69" y="83.0844" fill="black" font-size="11.7842" font-family="Helvetica">Std Dev   </text>
<text xml:space="preserve" x="515.298" y="83.0844" fill="black" font-size="11.7842" font-family="Helvetica">  1.005</text>
<path d="M57.1929,346.022h 453.543" fill="none" stroke="black"/>
<path d="M57.1929,336.795v 9.22726" fill="none" stroke="black"/>
<path d="M66.2638,341.409v 4.61363" fill="none" stroke="black"/>
<path d="M75.3346,341.409v 4.61363" fill="none" stroke="black"/>
<path d="M84.4055,341.409v 4.61363" fill="none" stroke="black"/>
<path d="M93.4764,341.409v 4.61363" fill="none" stroke="black"/>
<path d="M102.547,336.795v 9.22726" fill="none" stroke="black"/>
<path d="M111.618,341.409v 4.61363" fill="none" stroke="black"/>
<path d="M120.689,341.409v 4.61363" fill="none" stroke="black"/>
<path d="M129.76,341.409v 4.61363" fill="none" stroke="black"/>
<path d="M138.831,341.409v 4.61363" fill="none" stroke="black"/>
<path d="M147.902,336.795v 9.22726" fill="none" stroke="black"/>
<path d="M156.972,341.409v 4.61363" fill="none" stroke="black"/>
<path d="M166.043,341.409v 4.61363" fill="none" stroke="black"/>
<path d="M175.114,341.409v 4.61363" fill="none" stroke="black"/>
<path d="M184.185,341.409v 4.61363" fill="none" stroke="black"/>
<path d="M193.256,336.795v 9.22726" fill="none" stroke="black"/>
<path d="M202.327,341.409v 4.61363" fill="none" stroke="black"/>
<path d="M211.398,341.409v 4.61363" fill="none" stroke="black"/>
<path d="M220.469,341.409v 4.61363" fill="none" stroke="black"/>
<path d="M229.539,341.409v 4.61363" fill="none" stroke="black"/>
<path d="M238.61,336.795v 9.22726" fill="none" stroke="black"/>
<path d="M247.681,341.409v 4.61363" fill="none" stroke="black"/>
<path d="M256.752,341.409v 4.61363" fill="none" stroke="black"/>
<path d="M265.823,341.409v 4.61363" fill="none" stroke="black"/>
<path d="M274.894,341.409v 4.61363" fill="none" stroke="black"/>
<path d="M283.965,336.795v 9.22726" fill="none" stroke="black"/>
<path d="M293.035,341.409v 4.61363" fill="none" stroke="black"/>
<path d="M302.106,341.409v 4.61363" fill="none" stroke="black"/>
<path d="M311.177,341.409v 4.61363" fill="none" stroke="black"/>
<path d="M320.248,341.409v 4.61363" fill="none" stroke="black"/>
<path d="M329.319,336.795v 9.22726" fill="none" stroke="black"/>
<path d="M338.39,341.409v 4.61363" fill="none" stroke="black"/>
<path d="M347.461,341.409v 4.61363" fill="none" stroke="black"/>
<path d="M356.531,341.409v 4.61363" fill="none" stroke="black"/>
<path d="M365.602,341.409v 4.61363" fill="none" stroke="black"/>
<path d="M374.673,336.795v 9.22726" fill="none" stroke="black"/>
<path d="M383.744,341.409v 4.61363" fill="none" stroke="black"/>
<path d="M392.815,341.409v 4.61363" fill="none" stroke="black"/>
<path d="M401.886,341.409v 4.61363" fill="none" stroke="black"/>
<path d="M410.957,341.409v 4.61363" fill="none" stroke="black"/>
<path d="M420.028,336.795v 9.22726" fill="none" stroke="black"/>
<path d="M429.098,341.409v 4.61363" fill="none" stroke="black"/>
<path d="M438.169,341.409v 4.61363" fill="none" stroke="black"/>
<path d="M447.24,341.409v 4.61363" fill="none" stroke="black"/>
<path d="M456.311,341.409v 4.61363" fill="none" stroke="black"/>
<path d="M465.382,336.795v 9.22726" fill="none" stroke="black"/>
<path d="M474.453,341.409v 4.61363" fill="none" stroke="black"/>
<path d="M483.524,341.409v 4.61363" fill="none" stroke="black"/>
<path d="M492.594,341.409v 4.61363" fill="none" stroke="black"/>
<path d="M501.665,341.409v 4.61363" fill="none" stroke="black"/>
<path d="M510.736,336.795v 9.22726" fill="none" stroke="black"/>
<text xml:space="preserve" x="56.7042" y="358.403" fill="black" font-size="12.8453" font-family="Helvetica">5</text>
<text xml:space="preserve" x="49.3732" y="358.403" fill="black" font-size="12.8453" font-family="Times">&#8722;</text>
<text xml:space="preserve" x="102.319" y="358.403" fill="black" font-size="12.8453" font-family="Helvetica">4</text>
<text xml:space="preserve" x="94.9882" y="358.403" fill="black" font-size="12.8453" font-family="Times">&#8722;</text>
<text xml:space="preserve" x="147.12" y="358.403" fill="black" font-size="12.8453" font-family="Helvetica">3</text>
<text xml:space="preserve" x="139.789" y="358.403" fill="black" font-size="12.8453" font-family="Times">&#8722;</text>
<text xml:space="preserve" x="192.735" y="358.403" fill="black" font-size="12.8453" font-family="Helvetica">2</text>
<text xml:space="preserve" x="185.404" y="358.403" fill="black" font-size="12.8453" font-family="Times">&#8722;</text>
<text xml:space="preserve" x="239.164" y="358.403" fill="black" font-size="12.8453" font-family="Helvetica">1</text>
<text xml:space="preserve" x="231.833" y="358.403" fill="black" font-size="12.8453" font-family="Times">&#8722;</text>
<text xml:space="preserve" x="280.706" y="358.403" fill="black" font-size="12.8453" font-family="Helvetica">0</text>
<text xml:space="preserve" x="326.321" y="358.403" fill="black" font-size="12.8453" font-family="Helvetica">1</text>
<text xml:space="preserve" x="371.122" y="358.403" fill="black" font-size="12.8453" font-family="Helvetica">2</text>
<text xml:space="preserve" x="416.737" y="358.403" fill="black" font-size="12.8453" font-family="Helvetica">3</text>
<text xml:space="preserve" x="461.537" y="358.403" fill="black" font-size="12.8453" font-family="Helvetica">4</text>
<text xml:space="preserve" x="507.152" y="358.403" fill="black" font-size="12.8453" font-family="Helvetica">5</text>
<text xml:space="preserve" x="503.894" y="371.436" fill="black" font-size="12.8453" font-family="Helvetica">x</text>
<path d="M57.1929,346.022v -307.575" fill="none" stroke="black"/>
<path d="M70.7992,346.022h -13.6063" fill="none" stroke="black"/>
<path d="M63.9961,339.523h -6.80315" fill="none" stroke="black"/>
<path d="M63.9961,333.024h -6.80315" fill="none" stroke="black"/>
<path d="M63.9961,326.526h -6.80315" fill="none" stroke="black"/>
<path d="M63.9961,320.027h -6.80315" fill="none" stroke="black"/>
<path d="M70.7992,313.528h -13.6063" fill="none" stroke="black"/>
<path d="M63.9961,307.029h -6.80315" fill="none" stroke="black"/>
<path d="M63.9961,300.53h -6.80315" fill="none" stroke="black"/>
<path d="M63.9961,294.031h -6.80315" fill="none" stroke="black"/>
<path d="M63.9961,287.532h -6.80315" fill="none" stroke="black"/>
<path d="M70.7992,281.033h -13.6063" fill="none" stroke="black"/>
<path d="M63.9961,274.534h -6.80315" fill="none" stroke="black"/>
<path d="M63.9961,268.036h -6.80315" fill="none" stroke="black"/>
<path d="M63.9961,261.537h -6.80315" fill="none" stroke="black"/>
<path d="M63.9961,255.038h -6.80315" fill="none" stroke="black"/>
<path d="M70.7992,248.539h -13.6063" fill="none" stroke="black"/>
<path d="M63.9961,242.04h -6.80315" fill="none" stroke="black"/>
<path d="M63.9961,235.541h -6.80315" fill="none" stroke="black"/>
<path d="M63.9961,229.042h -6.80315" fill="none" stroke="black"/>
<path d="M63.9961,222.543h -6.80315" fill="none" stroke="black"/>
<path d="M70.7992,216.044h -13.6063" fill="none" stroke="black"/>
<path d="M63.9961,209.545h -6.80315" fill="none" stroke="black"/>
<path d="M63.9961,203.047h -6.80315" fill="none" stroke="black"/>
<path d="M63.9961,196.548h -6.80315" fill="none" stroke="black"/>
<path d="M63.9961,190.049h -6.80315" fill="none" stroke="black"/>
<path d="M70.7992,183.55h -13.6063" fill="none" stroke="black"/>
<path d="M63.9961,177.051h -6.80315" fill="none" stroke="black"/>
<path d="M63.9961,170.552h -6.80315" fill="none" stroke="black"/>
<path d="M63.9961,164.053h -6.80315" fill="none" stroke="black"/>
<path d="M63.9961,157.554h -6.80315" fill="none" stroke="black"/>
<path d="M70.7992,151.055h -13.6063" fill="none" stroke="black"/>
<path d="M63.9961,144.557h -6.80315" fill="none" stroke="black"/>
<path d="M63.9961,138.058h -6.80315" fill="none" stroke="black"/>
<path d="M63.9961,131.559h -6.80315" fill="none" stroke="black"/>
<path d="M63.9961,125.06h -6.80315" fill="none" stroke="black"/>
<path d="M70.7992,118.561h -13.6063" fill="none" stroke="black"/>
<path d="M63.9961,112.062h -6.80315" fill="none" stroke="black"/>
<path d="M63.9961,105.563h -6.80315" fill="none" stroke="black"/>
<path d="M63.9961,99.0642h -6.80315" fill="none" stroke="black"/>
<path d="M63.9961,92.5653h -6.80315" fill="none" stroke="black"/>
<path d="M70.7992,86.0664h -13.6063" fill="none" stroke="black"/>
<path d="M63.9961,79.5676h -6.80315" fill="none" stroke="black"/>
<path d="M63.9961,73.0687h -6.80315" fill="none" stroke="black"/>
<path d="M63.9961,66.5698h -6.80315" fill="none" stroke="black"/>
<path d="M63.9961,60.0709h -6.80315" fill="none" stroke="black"/>
<path d="M70.7992,53.572h -13.6063" fill="none" stroke="black"/>
<path d="M70.7992,53.572h -13.6063" fill="none" stroke="black"/>
<path d="M63.9961,47.0731h -6.80315" fill="none" stroke="black"/>
<path d="M63.9961,40.5742h -6.80315" fill="none" stroke="black"/>
<text xml:space="preserve" x="47.7441" y="350.258" fill="black" font-size="12.8453" font-family="Helvetica">0</text>
<text xml:space="preserve" x="40.4131" y="317.676" fill="black" font-size="12.8453" font-family="Helvetica">50</text>
<text xml:space="preserve" x="33.8967" y="285.908" fill="black" font-size="12.8453" font-family="Helvetica">100</text>
<text xml:space="preserve" x="33.8967" y="253.326" fill="black" font-size="12.8453" font-family="Helvetica">150</text>
<text xml:space="preserve" x="33.8967" y="220.744" fill="black" font-size="12.8453" font-family="Helvetica">200</text>
<text xml:space="preserve" x="33.8967" y="188.162" fill="black" font-size="12.8453" font-family="Helvetica">250</text>
<text xml:space="preserve" x="33.8967" y="155.58" fill="black" font-size="12.8453" font-family="Helvetica">300</text>
<text xml:space="preserve" x="33.8967" y="122.998" fill="black" font-size="12.8453" font-family="Helvetica">350</text>
<text xml:space="preserve" x="33.8967" y="90.4154" fill="black" font-size="12.8453" font-family="Helvetica">400</text>
<text xml:space="preserve" x="33.8967" y="57.8333" fill="black" font-size="12.8453" font-family="Helvetica">450</text>
<g transform="rotate(-90,20.8638,74.1244)">
<text xml:space="preserve" x="20.8638" y="74.1244" fill="black" font-size="12.8453" font-family="Helvetica">counts</text>
</g>
<rect x="442.705" y="24.9905" width="113.386" height="61.5151" fill="white"/>
<path d="M442.705,86.5056h 113.386" fill="none" stroke="black"/>
<path d="M556.091,86.5056v -61.5151" fill="none" stroke="black"/>
<path d="M556.091,24.9905h -113.386" fill="none" stroke="black"/>
<path d="M442.705,24.9905v 61.5151" fill="none" stroke="black"/>
<text xml:space="preserve" x="479.457" y="38.284" fill="black" font-size="13.4802" font-family="Helvetica">hGaus</text>
<path d="M442.705,40.3693h 113.386" fill="none" stroke="black"/>
<text xml:space="preserve" x="447.69" y="52.946" fill="black" font-size="11.7842" font-family="Helvetica">Entries </text>
<text xml:space="preserve" x="515.298" y="52.946" fill="black" font-size="11.7842" font-family="Helvetica"> 10000</text>
<text xml:space="preserve" x="447.69" y="67.6079" fill="black" font-size="11.7842" font-family="Helvetica">Mean  </text>
<text xml:space="preserve" x="499.821" y="67.6079" fill="black" font-size="11.7842" font-family="Helvetica"> 0.008308</text>
<text xml:space="preserve" x="447.69" y="83.0844" fill="black" font-size="11.7842" font-family="Helvetica">Std Dev   </text>
<text xml:space="preserve" x="515.298" y="83.0844" fill="black" font-size="11.7842" font-family="Helvetica">  1.005</text>
<path d="M57.1929,346.022h 31.748v -1.29978h 4.53543v 1.29978h 31.748v -0.64989h 13.6063v -1.29978h 4.53543v -0.64989h 4.53543v -1.29978h 4.53543v -0.64989h 4.53543v -3.89934h 4.53543v -2.59956h 4.53543v 6.4989h 4.53543v -8.44856h 4.53543v -0.64989h
 4.53543v -6.4989h 4.53543v -11.698h 4.53543v 0.64989h 4.53543v -14.9475h 4.53543v 7.14878h 4.53543v -14.2976h 4.53543v -7.14878h 4.53543v -16.2472h 4.53543v -10.3982h 4.53543v -4.54923h 4.53543v -31.1947h 4.53543v -18.1969h 4.53543v -7.79867h
 4.53543v -14.9475h 4.53543v -19.4967h 4.53543v -9.09845h 4.53543v -0.64989h 4.53543v -32.4945h 4.53543v -5.19912h 4.53543v -26.6455h 4.53543v -0.64989h 4.53543v 2.59956h 4.53543v -7.14878h 4.53543v 16.8971h 4.53543v -33.7943h 4.53543v 28.5951h
 4.53543v -0.64989h 4.53543v -0.64989h 4.53543v 48.0918h 4.53543v 0.64989h 4.53543v 12.9978h 4.53543v 19.4967h 4.53543v 11.698h 4.53543v 13.6477h 4.53543v 3.24945h 4.53543v 27.2954h 4.53543v 18.8468h 4.53543v 10.3982h 4.53543v -7.14878h 4.53543v
 27.2954h 4.53543v 1.94967h 4.53543v 14.9475h 4.53543v 11.0481h 4.53543v 4.54923h 4.53543v 5.84901h 4.53543v 9.09845h 4.53543v -2.59956h 4.53543v 7.14878h 4.53543v 3.89934h 4.53543v -1.94967h 4.53543v 5.19912h 4.53543v 1.94967h 9.07087v 2.59956h
 4.53543v 1.94967h 4.53543v -1.29978h 4.53543v 0.64989h 4.53543v -1.29978h 4.53543v 1.29978h 4.53543v 0.64989h 4.53543v -0.64989h 4.53543v 0.64989h 9.07087v -1.29978h 4.53543v 1.29978h 40.8189" fill="none" stroke="#000099"/></svg>
